<svg xmlns="http://www.w3.org/2000/svg" width="70" height="68.272" viewBox="0 0 70 68.272">
  <path id="Path_18" data-name="Path 18" d="M35,0A35,35,0,0,0,23.935,68.212c1.749.324,2.391-.759,2.391-1.684,0-.834-.033-3.592-.047-6.516-9.737,2.117-11.792-4.13-11.792-4.13C12.9,51.837,10.6,50.761,10.6,50.761c-3.175-2.172.239-2.128.239-2.128,3.515.247,5.365,3.607,5.365,3.607,3.122,5.351,8.188,3.8,10.185,2.91a7.453,7.453,0,0,1,2.222-4.68c-7.774-.885-15.946-3.886-15.946-17.3a13.545,13.545,0,0,1,3.606-9.394,12.577,12.577,0,0,1,.339-9.262s2.939-.941,9.628,3.588a33.2,33.2,0,0,1,17.528,0c6.681-4.528,9.615-3.588,9.615-3.588a12.561,12.561,0,0,1,.343,9.262,13.519,13.519,0,0,1,3.6,9.394c0,13.443-8.188,16.4-15.981,17.269,1.255,1.086,2.374,3.216,2.374,6.481,0,4.683-.041,8.452-.041,9.605,0,.931.63,2.023,2.4,1.679A35.005,35.005,0,0,0,35,0" fill="#fbfbff"/>
</svg>
