<svg xmlns="http://www.w3.org/2000/svg" width="50" height="49.999" viewBox="0 0 50 49.999">
  <path id="Icon_awesome-linkedin-in" data-name="Icon awesome-linkedin-in" d="M11.192,50H.826V16.618H11.192ZM6,12.064a6.032,6.032,0,1,1,6-6.06A6.054,6.054,0,0,1,6,12.064ZM49.989,50H39.645V33.75c0-3.873-.078-8.839-5.39-8.839-5.39,0-6.215,4.208-6.215,8.56V50H17.685V16.618h9.942v4.554h.145a10.892,10.892,0,0,1,9.808-5.391C48.071,15.781,50,22.689,50,31.663V50Z" transform="translate(0 -0.001)" fill="#197aae"/>
</svg>
