<svg xmlns="http://www.w3.org/2000/svg" width="150" height="114.909" viewBox="0 0 150 114.909">
  <g id="computer-line" transform="translate(-1 -5)">
    <path id="Path_38" data-name="Path 38" d="M14.385,64.391V15.385H73.447L79.752,9H8V64.391h6.385Z" transform="translate(27.319 15.643)" fill="#04273a"/>
    <path id="Path_39" data-name="Path 39" d="M13.021,12.981H121.274V76.832H130.3V10.986C130.3,7.68,127.266,5,123.53,5H10.766C7.029,5,4,7.68,4,10.986V76.832h9.021Z" transform="translate(8.972 0)" fill="#04273a"/>
    <path id="Path_40" data-name="Path 40" d="M1,25V38.568C1,44.3,6.145,48.944,12.491,48.944H139.509C145.855,48.944,151,44.3,151,38.568V25ZM142.426,38.568a2.533,2.533,0,0,1-2.652,2.394H12.314a2.533,2.533,0,0,1-2.652-2.394V31.106H53.637A7.3,7.3,0,0,0,60.266,35.1H91.778a7.3,7.3,0,0,0,6.629-3.991h44.019Z" transform="translate(0 70.965)" fill="#04273a"/>
  </g>
</svg>
