<svg xmlns="http://www.w3.org/2000/svg" width="150" height="149.854" viewBox="0 0 150 149.854">
  <path id="website" d="M129.051,47.02a12.416,12.416,0,0,0-2.2-.292,13.332,13.332,0,0,0-9.375,3.662,169.977,169.977,0,0,0-16.7-6.446,222.04,222.04,0,0,0-26.658-6.737,14.47,14.47,0,0,0-3.954-5.858A161.7,161.7,0,0,1,79.977,0a75.4,75.4,0,0,1,58.886,35.3,147.579,147.579,0,0,0-9.812,11.721ZM61.082,27.978a13.587,13.587,0,0,0-7.179,2.05A172.094,172.094,0,0,0,30.028,15.087,73.051,73.051,0,0,1,70.748,0a151.742,151.742,0,0,0-9.229,27.978ZM10.254,37.061a78.594,78.594,0,0,1,12.6-15.82A180.22,180.22,0,0,1,43.5,33.837q-18.9-.437-33.249,3.221ZM47.02,42.92a13.542,13.542,0,0,0,3.15,7.983,13.817,13.817,0,0,0,7.1,4.612Q56.394,65.769,56.394,75q0,6.446.437,14.8a14,14,0,0,0-5.712,3.517,134.631,134.631,0,0,1-15.233-7.033A14.569,14.569,0,0,0,37.5,79.685a13.571,13.571,0,0,0-4.1-9.962,13.541,13.541,0,0,0-9.962-4.1A13.459,13.459,0,0,0,12.745,70.6,101.23,101.23,0,0,1,1.758,59.032a65.57,65.57,0,0,1,3.954-12.45Q23.583,41.6,47.02,42.92ZM9.521,80.856a13.569,13.569,0,0,0,4.467,9.154,13.472,13.472,0,0,0,9.45,3.737,11.992,11.992,0,0,0,3.517-.587,130.256,130.256,0,0,0,20.066,9.375v.587a13.526,13.526,0,0,0,3.883,9.741,13.834,13.834,0,0,0,9.6,4.321A158.064,158.064,0,0,0,70.752,149.85a73.923,73.923,0,0,1-27.687-7.1,74.062,74.062,0,0,1-37.5-39.624A73.059,73.059,0,0,1,0,75q0-.146.146-3.954A80.066,80.066,0,0,0,9.521,80.856Zm63.865,28.858a172.748,172.748,0,0,0,21.241,2.492,16.31,16.31,0,0,0,3.221,5.421,182.327,182.327,0,0,0-4.1,29.882,78.319,78.319,0,0,1-13.77,2.346,166.3,166.3,0,0,1-10.691-35.449,11.921,11.921,0,0,0,4.1-4.687Zm45.407,7.033a13.713,13.713,0,0,0,2.637-4.979,195.183,195.183,0,0,0,20.654-2.783,74.5,74.5,0,0,1-19.337,23.874,128.207,128.207,0,0,0-3.954-16.112ZM94.918,102.83A139.862,139.862,0,0,1,74.7,100.193a13.413,13.413,0,0,0-8.35-10.108Q65.765,81.444,65.765,75q0-9.666.879-20.066a1.437,1.437,0,0,0,.733-.292,1.528,1.528,0,0,1,.587-.292q5.712,5.567,9.962,10.254A141.35,141.35,0,0,1,99.606,96.535a14.331,14.331,0,0,0-4.687,6.3Zm13.037,19.041q.292,0,1.612-.146a129.808,129.808,0,0,1,3.662,17.725,84.069,84.069,0,0,1-10.254,4.979,179.51,179.51,0,0,1,3.517-22.7q1.171.146,1.467.146Zm-.733-35.007q-.146.292-.367.879t-.367.879A158.024,158.024,0,0,0,84.81,58.3Q80.269,53.178,73.969,47.17q.146,0,.221-.221l.075-.221a213.548,213.548,0,0,1,23.583,6.154,146.981,146.981,0,0,1,15.087,5.858,12.416,12.416,0,0,0-.292,2.2,13.485,13.485,0,0,0,2.637,8.058,156.905,156.905,0,0,0-8.058,17.87Zm6.883,8.5q1.758-5.125,1.758-5.275a167.051,167.051,0,0,1,7.325-15.675,12.408,12.408,0,0,0,3.662.587,13.419,13.419,0,0,0,8.937-3.371A145.69,145.69,0,0,1,149.85,82.76a74.006,74.006,0,0,1-3.517,16.112,200.435,200.435,0,0,1-25.341,3.517,13.1,13.1,0,0,0-6.883-7.033Zm26.808-34.57A13.578,13.578,0,0,0,137.692,52a93.558,93.558,0,0,1,6.154-7.179A73.789,73.789,0,0,1,150,69.577q-4.833-3.662-9.375-6.591a10.505,10.505,0,0,0,.292-2.2Z" fill="#04273a"/>
</svg>
