<svg xmlns="http://www.w3.org/2000/svg" width="50" height="48.751" viewBox="0 0 50 48.751">
  <path id="Icon_awesome-github" data-name="Icon awesome-github" d="M16.724,39.817c0,.2-.232.363-.524.363-.333.03-.565-.131-.565-.363,0-.2.232-.363.524-.363C16.462,39.423,16.724,39.585,16.724,39.817Zm-3.135-.454c-.071.2.131.433.433.494a.473.473,0,0,0,.625-.2c.06-.2-.131-.433-.433-.524A.517.517,0,0,0,13.589,39.363Zm4.456-.171c-.292.071-.494.262-.464.494.03.2.292.333.595.262s.494-.262.464-.464S18.337,39.161,18.044,39.192ZM24.677.563A24.172,24.172,0,0,0,0,25.159,25.273,25.273,0,0,0,17.087,49.272c1.29.232,1.744-.565,1.744-1.22,0-.625-.03-4.073-.03-6.19,0,0-7.056,1.512-8.538-3,0,0-1.149-2.933-2.8-3.69,0,0-2.308-1.583.161-1.552a5.321,5.321,0,0,1,3.891,2.6c2.208,3.891,5.907,2.772,7.349,2.107a5.6,5.6,0,0,1,1.613-3.4C14.839,34.3,9.153,33.486,9.153,23.788a7.64,7.64,0,0,1,2.379-5.937,9.524,9.524,0,0,1,.262-6.845c2.107-.655,6.956,2.722,6.956,2.722a23.815,23.815,0,0,1,12.661,0s4.849-3.387,6.956-2.722a9.52,9.52,0,0,1,.262,6.845c1.613,1.784,2.6,3.175,2.6,5.938,0,9.728-5.937,10.5-11.573,11.139A5.962,5.962,0,0,1,31.371,39.6c0,3.4-.03,7.6-.03,8.427,0,.655.464,1.452,1.744,1.22A25.04,25.04,0,0,0,50,25.159C50,11.177,38.659.563,24.677.563ZM9.8,35.331c-.131.1-.1.333.071.524.161.161.393.232.524.1.131-.1.1-.333-.071-.524C10.161,35.27,9.929,35.2,9.8,35.331ZM8.71,34.514c-.071.131.03.292.232.393a.3.3,0,0,0,.433-.071c.071-.131-.03-.292-.232-.393C8.942,34.383,8.78,34.413,8.71,34.514ZM11.976,38.1c-.161.131-.1.433.131.625.232.232.524.262.655.1.131-.131.071-.433-.131-.625C12.409,37.972,12.107,37.942,11.976,38.1Zm-1.149-1.482c-.161.1-.161.363,0,.595s.433.333.565.232a.46.46,0,0,0,0-.625C11.25,36.591,10.988,36.49,10.827,36.621Z" transform="translate(0 -0.563)" fill="#197aae"/>
</svg>
