<?xml version="1.0" standalone="no"?>
<!DOCTYPE svg PUBLIC "-//W3C//DTD SVG 20010904//EN"
 "http://www.w3.org/TR/2001/REC-SVG-20010904/DTD/svg10.dtd">
<svg version="1.0" xmlns="http://www.w3.org/2000/svg"
 width="700.000000pt" height="700.000000pt" viewBox="0 0 700.000000 700.000000"
 preserveAspectRatio="xMidYMid meet">
<metadata>
Created by potrace 1.14, written by Peter Selinger 2001-2017
</metadata>
<g transform="translate(0.000000,700.000000) scale(0.100000,-0.100000)"
fill="#000000" stroke="none">
<path d="M0 3500 l0 -3500 3500 0 3500 0 0 3500 0 3500 -3500 0 -3500 0 0
-3500z m1615 976 c266 -78 404 -266 405 -553 0 -306 -139 -493 -421 -564 -70
-17 -125 -22 -326 -26 l-243 -6 0 -388 0 -389 -135 0 -135 0 0 976 0 975 398
-4 c340 -3 406 -6 457 -21z m1536 -775 l424 -800 3 800 2 800 133 -3 132 -3 0
-970 0 -970 -179 0 -180 0 -425 803 -426 803 -3 -806 -2 -805 -130 0 -130 0 0
975 0 975 179 0 179 0 423 -799z m2144 775 c261 -77 393 -255 371 -503 -17
-187 -101 -306 -247 -350 l-57 -17 72 -28 c226 -89 343 -302 308 -565 -28
-212 -175 -370 -397 -428 -111 -29 -221 -35 -602 -35 l-383 0 0 976 0 975 438
-4 c381 -3 445 -6 497 -21z"/>
<path d="M1030 3921 l0 -361 200 0 c109 0 221 5 248 11 112 23 207 110 238
215 18 64 20 192 4 255 -17 62 -66 135 -114 168 -83 57 -121 65 -358 69 l-218
4 0 -361z"/>
<path d="M4630 3990 l0 -292 258 4 c281 5 343 16 417 72 86 66 116 237 61 350
-31 63 -75 100 -154 129 -51 19 -82 22 -319 25 l-263 4 0 -292z"/>
<path d="M4630 3130 l0 -350 260 0 c154 0 281 5 312 11 112 24 185 77 229 165
21 44 24 62 24 169 0 105 -3 127 -24 172 -42 94 -128 152 -254 173 -34 5 -171
10 -304 10 l-243 0 0 -350z"/>
</g>
</svg>
