<?xml version="1.0" standalone="no"?>
<!DOCTYPE svg PUBLIC "-//W3C//DTD SVG 20010904//EN"
 "http://www.w3.org/TR/2001/REC-SVG-20010904/DTD/svg10.dtd">
<svg version="1.0" xmlns="http://www.w3.org/2000/svg"
 width="300.000000pt" height="300.000000pt" viewBox="0 0 300.000000 300.000000"
 preserveAspectRatio="xMidYMid meet">
<metadata>
Created by potrace 1.14, written by Peter Selinger 2001-2017
</metadata>
<g transform="translate(0.000000,300.000000) scale(0.100000,-0.100000)"
fill="#000000" stroke="none">
<path d="M0 1500 l0 -1500 1500 0 1500 0 0 1500 0 1500 -1500 0 -1500 0 0
-1500z m728 396 c110 -51 172 -148 172 -270 0 -83 -26 -152 -76 -206 -78 -84
-174 -110 -401 -110 l-133 0 0 -140 0 -140 -55 0 -55 0 0 451 0 450 243 -3
242 -3 63 -29z m739 -327 l288 -361 3 361 2 361 45 0 45 0 0 -450 0 -450 -38
0 -38 0 -284 359 c-157 198 -288 360 -292 360 -5 1 -8 -161 -8 -359 l0 -360
-45 0 -45 0 0 450 0 450 40 0 39 0 288 -361z m1261 332 c97 -44 138 -116 129
-228 -5 -70 -37 -129 -82 -153 -33 -18 -32 -24 9 -38 44 -16 102 -80 115 -129
30 -107 -4 -218 -84 -270 -70 -46 -121 -53 -402 -53 l-263 0 0 451 0 450 263
-3 c251 -3 264 -4 315 -27z"/>
<path d="M290 1619 l0 -222 158 6 c210 8 279 33 323 118 23 46 27 136 9 184
-15 40 -56 82 -105 108 -36 20 -59 22 -212 25 l-173 4 0 -223z"/>
<path d="M2250 1690 l0 -162 183 4 c171 3 185 5 231 28 67 33 91 69 91 130 0
62 -25 97 -91 130 -46 23 -61 25 -231 28 l-183 4 0 -162z"/>
<path d="M2250 1281 l0 -171 168 0 c305 0 382 34 382 170 0 70 -23 105 -88
137 -50 24 -63 26 -257 31 l-205 5 0 -172z"/>
</g>
</svg>
